<?xml version="1.0" encoding="iso-8859-1"?>
<!-- Source: SVG Repo (www.svgrepo.com), CC0 License -->
<svg fill="#000000" height="800px" width="800px" version="1.1" id="Capa_1" xmlns="http://www.w3.org/2000/svg" xmlns:xlink="http://www.w3.org/1999/xlink"
	 viewBox="0 0 430 430" xml:space="preserve">
<g id="XMLID_22_">
	<path id="XMLID_800_" d="M317.581,43.194C289.99,15.34,253.56,0,215,0s-74.99,15.34-102.581,43.194C85.065,70.81,70,106.965,70,145
		c0,15.214,7.413,40.922,16.797,73.471C97.673,256.191,110,298.944,110,325c0,57.897,47.103,105,105,105
		c57.897,0,105-47.103,105-105c0-26.056,12.327-68.809,23.203-106.529C352.588,185.922,360,160.214,360,145
		C360,106.965,344.935,70.81,317.581,43.194z M215,400c-41.355,0-75-33.645-75-75c0-30.295-12.951-75.211-24.377-114.841
		C107.942,183.521,100,155.976,100,145c0-30.076,11.98-58.733,33.733-80.694C155.646,42.184,184.508,30,215,30
		s59.353,12.184,81.267,34.306C318.02,86.267,330,114.924,330,145c0,5.454-1.962,15-4.877,26.492l-29.186-6.944
		c2.1-8.182,3.54-14.698,3.974-18.771l0.095-0.883l-0.011-0.888c-0.268-22.159-9.319-43.172-25.489-59.17
		C258.318,68.82,237.186,60,215,60c-22.186,0-43.318,8.82-59.505,24.835c-16.17,15.998-25.222,37.012-25.489,59.17l-0.011,0.888
		l0.094,0.883c0.981,9.2,7.082,30.832,14.359,56.073C157.011,245.417,170,290.467,170,325c0,24.813,20.187,45,45,45
		c24.814,0,45-20.187,45-45c0-9.246,0.938-19.25,2.543-29.774l29.314,6.975C290.681,310.402,290,318.085,290,325
		C290,366.355,256.355,400,215,400z M230,325c0,8.271-6.729,15-15,15c-8.271,0-15-6.729-15-15
		c0-38.772-13.586-85.893-26.729-131.474c-4.244-14.721-12.021-41.696-13.247-50.119C160.907,114.358,185.864,90,215,90
		s54.093,24.358,54.976,53.407c-1.226,8.423-9.002,35.398-13.25,50.13C243.587,239.107,230,286.228,230,325z M317.174,200.438
		c-0.926,3.233-14.934,51.826-19.646,72.274l-29.219-6.952c4.789-20.714,18.863-69.544,19.646-72.275L317.174,200.438
		L317.174,200.438z"/>
</g>
</svg>
